<svg width="1200" height="1200" viewBox="0 0 1200 1200" class="iconify iconify--logos" width="31.88" height="32"
    preserveAspectRatio="xMidYMid meet">
    <path fill="blue"
        d="m1199.9 516.23c6.9375-165.09-388.25-245.46-405.37-264.28-8.5312-9.3555 19.801-252.13-194.53-251.95-214.33-0.17969-186.01 242.59-194.54 251.95-17.125 18.816-412.29 99.191-405.36 264.28 6.9102 165.1 216.61 80.305 261.34 128.89 39.121 42.527-183.35 314.75-208.23 487.61-8.1133 56.336 7.7266 67.27 62.48 67.27 99.312 0 194.12-0.058594 281.44-0.058594 39.445 0 53.473-22.668 73.824-53.902 45.047-69.148 99.453-180.29 129.06-180.28 29.594-0.011719 84.012 111.13 129.06 180.27 20.352 31.246 34.367 53.902 73.812 53.902 87.301 0 182.12 0.058593 281.44 0.058593 54.758 0 70.609-10.934 62.484-67.273-24.875-172.86-247.33-445.08-208.23-487.61 44.723-48.574 254.45 36.219 261.34-128.88z"
        fill-rule="evenodd" />
    <path transform="scale(6) translate(-20, 15)" fill="black"
        d="M44.479,6.962c-0.127-1.238-0.77-1.961-1.96-1.961c-1.194,0-1.964,0.769-1.964,1.961l0.001,18.128  c0,1.258-0.812,2.07-2.071,2.07H38.39c-1.258,0-2.07-0.812-2.07-2.07V6.963c0-1.191-0.77-1.961-1.963-1.961  s-1.963,0.769-1.962,1.961L32.394,25.09c0,1.258-0.811,2.07-2.07,2.07H30.23c-1.258,0-2.07-0.812-2.07-2.07V6.962  c0-1.191-0.77-1.961-1.963-1.962c-1.191,0-1.833,0.724-1.961,1.962l-1.88,21.651c-0.511,5.888,1.872,10.673,7.421,11.988  c0.648,0.154,1.166,0.562,1.115,1.427l-2.766,46.841C27.889,92.861,30.223,95,34.358,95c4.135,0,6.466-2.137,6.232-6.13  l-2.763-46.844c-0.051-0.865,0.467-1.273,1.115-1.426c5.547-1.316,7.93-6.1,7.419-11.987L44.479,6.962z" />
    <path transform="scale(6) translate(110, 15)" fill="black"
        d="M75.846,5.139c-9.4,2.881-13.463,15.448-13.463,37.852c0,12.054,7.834,5.064,6.957,13.833l-3.222,32.215  C65.793,92.289,67.702,95,72.297,95c4.176,0,5.406-2.846,5.406-5.961l0.011-82.415C77.714,4.928,76.859,4.828,75.846,5.139z" />
</svg>