<svg viewBox="-100 -100 2100 2100">
    <defs>
        <filter id="chalk" height="2" width="1.6" color-interpolation-filters="sRGB" y="-0.5" x="-0.3">
            <feTurbulence baseFrequency="1.32065" seed="115" result="result1" numOctaves="1" type="turbulence" />
            <feOffset result="result2" dx="-5" dy="-5" />
            <feDisplacementMap scale="1" yChannelSelector="G" in2="result1" xChannelSelector="R" in="SourceGraphic" />
            <feGaussianBlur stdDeviation="0.18" />
        </filter>
    </defs>

    <rect x="0" y="0" height="2100" width="2100" fill="#979797AA" stroke="#000"></rect>

    <circle cx="105" cy="105" r="100" fill="#181818" stroke="#000"></circle>

    <!-- meeple -->
    <g transform="translate(105 25)" filter="url(#chalk)" stroke-width="1">
        <path fill-rule="evenodd" fill="none" stroke="white"
            d="M12.023-1.678c.139-3.309-7.78-4.92-8.124-5.296-.171-.188.397-5.053-3.898-5.05-4.296-.003-3.728 4.862-3.899 5.05-.343.377-8.262 1.987-8.123 5.296.138 3.308 4.34 1.61 5.237 2.583.784.852-3.674 6.308-4.173 9.772-.163 1.129.155 1.348 1.252 1.348l5.64-.002c.79 0 1.072-.454 1.48-1.08C-1.683 9.557-.592 7.33 0 7.33c.593 0 1.684 2.227 2.586 3.613.408.626.69 1.08 1.48 1.08l5.64.001c1.097 0 1.415-.219 1.252-1.348-.499-3.464-4.957-8.92-4.173-9.771.896-.974 5.1.725 5.237-2.583z">
        </path>
        <text fill="#fff" text-anchor="middle" transform="translate(0 3.5)">
            0
        </text>
    </g>

    <!-- car -->
    <g transform="translate(72 2.5)">
        <path fill="black"
            d="m 324.6 235.2 l 3 0 l 4.6 -10.2 c 0.6 -1.2 1.2 -2.6 2.8 -2.6 l 27 0 c 1.6 0 2 1.4 2.8 2.6 l 4.6 10.2 l 8.8 0 c 4.4 0 8.2 3.6 8.2 8.2 l 0 5.6 c 0 1.4 -1.2 2.6 -2.6 2.6 l -6.6 0 c -1 -9 -14 -9 -15 0 l -18 0 c -1 -9 -14 -9 -15 0 l -4.6 0 c -1.4 0 -2.6 -1.2 -2.6 -2.6 l 0 -11.4 c 0 -1.4 1.2 -2.4 2.6 -2.4 z m 12.2 11.6 c 3 0 5.4 2.4 5.4 5.6 c 0 3 -2.4 5.6 -5.4 5.6 c -3.2 0 -5.6 -2.6 -5.6 -5.6 c 0 -3.2 2.4 -5.6 5.6 -5.6 z m 32.8 0 c 3.2 0 5.6 2.4 5.6 5.6 c 0 3 -2.4 5.6 -5.6 5.6 c -3 0 -5.6 -2.6 -5.6 -5.6 c 0 -3.2 2.6 -5.6 5.6 -5.6 z" />
        <text fill="#fff" text-anchor="middle" transform="scale(1) translate(0 0)">
            0
        </text>
    </g>

    <!-- take order -->
    <g stroke-width="1" transform=" rotate(72 105 105) translate(105 0)">
        <path fill="none" stroke="white" fill-rule="evenodd" transform="rotate(-72)"
            d="m -24 12 a 0.632 0.632 72 0 0 -0.4933 0.3391 l -0.6098 1.2138 l -3.4878 -0.0002 a 0.628 0.628 72 0 0 -0.0578 -0.0001 a 0.643 0.643 72 0 0 -0.5626 0.6212 l 0.0004 23.6052 c 0.0007 0.3257 0.2964 0.6208 0.6202 0.6207 l 17.3598 0.0006 a 0.645 0.645 72 0 0 0.6202 -0.6221 l 0.0001 -23.6033 a 0.645 0.645 72 0 0 -0.6204 -0.6217 l -3.4865 0.0005 l -0.611 -1.2137 a 0.633 0.633 72 0 0 -0.5518 -0.339 l -8.0611 -0.0021 a 0.628 0.628 72 0 0 -0.0579 -0.0001 z m 0.4371 1.2417 l 7.3035 0.0001 l 0.1556 0 l -7.6146 0 z m -4.4078 1.5531 l 2.2469 -0.0003 l -0.3196 0.6506 c -0.1907 0.3774 0.1301 0.902 0.5523 0.9036 l 1.5505 -0.0012 l 1.5502 0.001 l 4.9595 -0.0006 l 1.5502 0.001 l 1.5496 -0.0009 c 0.4215 -0.0003 0.744 -0.5256 0.553 -0.9031 l -0.3205 -0.6497 l 2.2478 -0.0007 l 0.0004 22.3624 l -16.1205 -0.0016 z m 3.6317 0.6212 l 8.8556 0.0005 l 0.1545 -0.311 l -0.5519 0.0006 l -1.5501 -0.001 l -4.9605 0.0009 l -1.5502 -0.001 l -0.5519 0.0005 z" />
        <text fill="black" text-anchor="middle"
            transform="translate(0 0) rotate(72 55.055 40) rotate(-72 3.441 -2.5)">
            1
        </text>
    </g>

    <!-- cook -->
    <g>
        <path fill-rule="evenodd" fill="black"
            d="M-20.309-10.429L-6.426-.342-7.52 1.165c-.26.358-.21.882.147 1.141l23.564 17.12c.357.26.866.142 1.125-.216l2.104-2.895a1.775 1.775 0 00-.26-2.379l1.544-2.652.012-.015a3.606 3.606 0 00-1.042-4.64L3.72-4.96a3.608 3.608 0 00-4.736.442c-.004.005.002-.004-.003 0l-.71.79-15.348-11.15a2.75 2.75 0 10-3.233 4.45zM16.47 17.652L-5.778 1.488-4.123-.79a.176.176 0 01.246-.05L18.1 15.129a.171.171 0 01.024.246zM2.78-3.666l15.952 11.59a2.002 2.002 0 01.586 2.568l-1.446 2.493-19.64-14.269L.158-3.429a2.002 2.002 0 012.623-.237zm-5.842 1.435a1.795 1.795 0 00-2.356.501l-.067.093-6.796-4.937 1.352-1.861 8.126 5.904zm-14.954-11.353l5.792 4.209-1.352 1.86-5.792-4.208a1.15 1.15 0 111.352-1.861z"
            transform="translate(105 105) rotate(144 12.997 40)"></path>
        <g fill="silver">
            <path
                d="M-20.559-7.756l.866.5 1.178-2.04a1.68 1.68 0 00-.614-2.294l-1.02-.589a.68.68 0 01-.249-.927l1.179-2.041-.866-.5-1.179 2.041a1.68 1.68 0 00.615 2.293l1.02.59a.68.68 0 01.249.926zM-2.059-7.756l.866.5 1.178-2.04a1.68 1.68 0 00-.614-2.294l-1.02-.589a.68.68 0 01-.249-.927l1.179-2.041-.866-.5-1.179 2.041a1.68 1.68 0 00.615 2.293l1.02.59a.68.68 0 01.249.926z"
                transform="translate(105 105) rotate(144 12.997 40) rotate(-144)"></path>
        </g>
        <text fill="black" text-anchor="middle"
            transform="translate(105 104) rotate(144 12.997 40) rotate(-144 4.363 5.287)">
            2
        </text>
    </g>

    <!-- serve -->
    <g>
        <path
            d="M-9.325-4.917c-.48.35-.808.885-.9 1.47l-.861 5.467a1.634 1.634 0 001.588 1.886 1.64 1.64 0 001.585-1.151l1.02-3.31.007-.004c.517.28 1.17.263 1.675-.105l2.257-1.64 1.212-.048c.267-.01.523-.1.74-.257l2.422-1.76c.26-.19.445-.466.52-.78l.788-3.306.845.134a.45.45 0 00.515-.374l.597-3.772a.45.45 0 00-.374-.514l-8.171-1.295a.449.449 0 00-.515.374l-.597 3.772a.45.45 0 00.374.515l.813.128-.07.444a.447.447 0 01-.181.294l-5.287 3.83-.002.002zm5.769-8.4l7.282 1.154-.457 2.883-7.282-1.154.457-2.882zm.049 5.296a1.34 1.34 0 00.54-.881l.07-.444 4.733.75-.771 3.239a.455.455 0 01-.174.26l-2.422 1.76a.449.449 0 01-.247.085l-1.349.055a.453.453 0 00-.246.085l-2.367 1.72a.676.676 0 01-.942-.149l-.014-.024a.648.648 0 01-.055-.093c-.131-.286-.018-.655.265-.86l3.412-2.48-.53-.727-3.411 2.478-.047.034a1.564 1.564 0 00-.636 1.133v.013c-.007.08-.01.16-.004.242.002.037.01.074.015.112.007.052.012.104.025.156.017.07.043.14.07.208.01.022.014.045.024.067l.003.006c.011.025.023.048.036.072l-.013.01a.448.448 0 00-.166.231L-8.773 2.49a.731.731 0 01-1.424-.33l.861-5.467c.055-.35.252-.672.54-.882h.002l5.287-3.831v-.001zM-9.77 9.205c7.977 9.417 13.647 9.717 18.991 6.55l.843 1.16c.438.602 1.284.736 1.886.298l.728-.529a1.352 1.352 0 00.299-1.885l-.843-1.16c4.663-4.105 6.13-9.59-.36-20.086a.442.442 0 00-.059-.396l-1.058-1.456a.45.45 0 00-.628-.1L-11.087 6.942a.45.45 0 00-.1.629l1.059 1.456c.087.12.222.176.359.178zm21.213 5.013l.806 1.11a.45.45 0 01-.1.628l-.728.53a.45.45 0 01-.629-.1l-.805-1.11.05-.035c.231-.153.461-.31.69-.476s.45-.337.666-.509l.05-.038zm-.234-.973c-1.003.802-1.355 1.058-2.077 1.509-5.005 3.131-10.34 3.014-18.093-6.018l20.038-14.56c6.195 10.167 4.657 15.276.132 19.069zm-21.403-5.839L10.194-7.406l.529.728L-9.665 8.134l-.529-.728z"
            transform="translate(105 105) rotate(-144 -12.997 40)" fill="black"></path>
        <text fill="black" text-anchor="middle"
            transform="translate(105 106) rotate(-144 -12.997 40) rotate(144 .812 2.5)">
            3
        </text>
    </g>

    <!-- refill -->
    <g>
        <path
            d="M17.446 3.838a.7.7 72 00-.203-.268l-5.601-4.746a.7.7 72 00-.47-.17l-1.522.058-3.356-10.33a.7.7 72 00-.955-.425l-21.646 9.69a.7.7 72 00-.377.858l3.833 11.796a.7.7 72 00.81.473L11.165 5.89a.7.7 72 00.522-.906L10.1.095l.85-.035 5.386 4.576a.7.7 72 001.13-.735.7.7 72 00-.02-.063zM5.202-10.446L8.194-1.24l-6.034.224c-.032-1.075-.134-2.257-.574-3.644C1.26-5.686.746-6.823-.06-8.093l5.261-2.353zM8.643.143l1.474 4.535-5.89 1.235C2.413 3.625 2.214 2.111 2.177.381L8.643.143z"
            transform="translate(105 105) rotate(-72 -55.055 40)" fill="black"></path>
        <text fill="#fff" text-anchor="middle"
            transform="translate(105 107) rotate(-72 -55.055 40) rotate(72 -6.882 -5)">
            4
        </text>
    </g>
</svg>