<svg xmlns="http://www.w3.org/2000/svg" viewBox="0 0 1200 1200" x="0px" y="0px">
  <defs>
    <filter id="chalk" height="2" width="3.2" color-interpolation-filters="sRGB" y="-0.5" x="-0.3">
      <feTurbulence baseFrequency="1.2065" seed="115" result="result1" numOctaves="1" type="turbulence" />
      <feOffset result="result2" dx="-5" dy="-5" />
      <feDisplacementMap scale="9" yChannelSelector="G" in2="result1" xChannelSelector="R" in="SourceGraphic" />
      <feGaussianBlur stdDeviation="0.6169" />
    </filter>
  </defs>
  <rect x="0" y="0" width="1200" height="1200" fill="black" />
  <g stroke="white" fill="none" filter="url(#chalk)" stroke-width="10">
    <path
      d="M 23 74 l 15 0 l 23 -51 c 3 -6 6 -13 14 -13 l 135 0 c 8 0 10 7 14 13 l 23 51 l 44 0 c 22 0 41 18 41 41 l 0 28 c 0 7 -6 13 -13 13 l -33 0 c -5 -45 -70 -45 -75 0 l -90 0 c -5 -45 -70 -45 -75 0 l -23 0 c -7 0 -13 -6 -13 -13 l 0 -57 c 0 -7 6 -12 13 -12 z" />
    <path d="M 84 132 c 15 0 27 12 27 28 c 0 15 -12 28 -27 28 c -16 0 -28 -13 -28 -28 c 0 -16 12 -28 28 -28 z" />
    <path d="M 248.5 132 c 16 0 28 12 28 28 c 0 15 -12 28 -28 28 c -15 0 -28 -13 -28 -28 c 0 -16 13 -28 28 -28 z" />

    <text fill="white" stroke="none" x="145" y="120" font-size="128" text-anchor="middle" font-family="sans-serif">
      0
    </text>

  </g>
</svg>