<svg xmlns="http://www.w3.org/2000/svg" xmlns:xlink="http://www.w3.org/1999/xlink" version="1.1" x="0px" y="0px"
    viewBox="0 0 100 125" enable-background="new 0 0 100 100" xml:space="preserve">
    <g>
        <path
            d="M76.643,13.202h-8.928c-1.129-1.164-2.707-1.893-4.455-1.893h-6.434v-0.112C56.826,7.779,54.043,5,50.62,5   c-3.421,0-6.206,2.779-6.206,6.197v0.112H37.98c-1.748,0-3.326,0.729-4.456,1.893H23.356c-3.832,0-6.949,3.113-6.949,6.939v67.92   c0,3.825,3.117,6.938,6.949,6.938h53.286c3.832,0,6.949-3.113,6.949-6.938v-67.92C83.592,16.315,80.475,13.202,76.643,13.202z    M37.98,13.188h7.373c0.519,0,0.939-0.421,0.939-0.938v-1.052c0-2.382,1.941-4.319,4.328-4.319c2.386,0,4.327,1.938,4.327,4.319   v1.052c0,0.518,0.422,0.938,0.939,0.938h7.373c2.387,0,4.326,1.938,4.326,4.319c0,2.381-1.939,4.318-4.326,4.318H37.98   c-2.387,0-4.328-1.938-4.328-4.318C33.652,15.125,35.594,13.188,37.98,13.188z M81.715,88.062c0,2.79-2.275,5.061-5.072,5.061   H23.356c-2.795,0-5.071-2.271-5.071-5.061v-67.92c0-2.791,2.275-5.061,5.071-5.061h8.914c-0.319,0.745-0.496,1.565-0.496,2.426   c0,3.416,2.784,6.196,6.206,6.196H63.26c3.422,0,6.205-2.779,6.207-6.196c0-0.86-0.178-1.681-0.496-2.426h7.672   c2.797,0,5.072,2.27,5.072,5.061V88.062z" />
</svg>