<svg width="1200" height="1200" viewBox="0 0 1200 1200">
    <defs>
        <filter id="chalk" height="2" width="3.2" color-interpolation-filters="sRGB" y="-0.5" x="-0.3">
            <feTurbulence baseFrequency="1.2065" seed="115" result="result1" numOctaves="1" type="turbulence" />
            <feOffset result="result2" dx="-5" dy="-5" />
            <feDisplacementMap scale="9" yChannelSelector="G" in2="result1" xChannelSelector="R" in="SourceGraphic" />
            <feGaussianBlur stdDeviation="0.6169" />
        </filter>
    </defs>
    <path stroke="white" fill="none" filter="url(#chalk)" stroke-width="50"
        d="m1199.9 516.23c6.9375-165.09-388.25-245.46-405.37-264.28-8.5312-9.3555 19.801-252.13-194.53-251.95-214.33-0.17969-186.01 242.59-194.54 251.95-17.125 18.816-412.29 99.191-405.36 264.28 6.9102 165.1 216.61 80.305 261.34 128.89 39.121 42.527-183.35 314.75-208.23 487.61-8.1133 56.336 7.7266 67.27 62.48 67.27 99.312 0 194.12-0.058594 281.44-0.058594 39.445 0 53.473-22.668 73.824-53.902 45.047-69.148 99.453-180.29 129.06-180.28 29.594-0.011719 84.012 111.13 129.06 180.27 20.352 31.246 34.367 53.902 73.812 53.902 87.301 0 182.12 0.058593 281.44 0.058593 54.758 0 70.609-10.934 62.484-67.273-24.875-172.86-247.33-445.08-208.23-487.61 44.723-48.574 254.45 36.219 261.34-128.88z" />
    <text x="600" y="800" text-anchor="middle" fill="white" font-size="600px" font-family="sans-serif">
        0
    </text>
</svg>