<svg viewBox="0 0 600 600" xmlns="http://www.w3.org/2000/svg">
    <defs></defs>
    <g style="">
        <title>Tables</title>
        <ellipse style="fill: rgb(216, 216, 216); stroke: rgb(0, 0, 0); pointer-events: auto;" cx="243" cy="108" rx="53"
            ry="53">
            <title>Table1</title>
        </ellipse>
        <ellipse style="fill: rgb(216, 216, 216); stroke: rgb(0, 0, 0); pointer-events: auto;" cx="169" cy="238" rx="53"
            ry="53">
            <title>Table2</title>
        </ellipse>
        <ellipse style="fill: rgb(216, 216, 216); stroke: rgb(0, 0, 0); pointer-events: auto;" cx="317" cy="238" rx="53"
            ry="53">
            <title>Table3</title>
        </ellipse>
    </g>
    <g style="">
        <title>Path</title>
        <ellipse style="stroke: rgb(0, 0, 0); fill: none;" cx="243" cy="108" rx="74.5" ry="74.5">
            <title>Path1</title>
        </ellipse>
        <ellipse style="stroke: rgb(0, 0, 0); fill: none;" cx="168" cy="237" rx="74.5" ry="74.5">
            <title>Path2</title>
        </ellipse>
        <ellipse style="stroke: rgb(0, 0, 0); fill: none;" cx="318" cy="237" rx="74.5" ry="74.5">
            <title>Path3</title>
        </ellipse>
        <line
            style="fill: rgb(216, 216, 216); stroke: rgb(0, 0, 0); transform-box: fill-box; transform-origin: 50% 50%;"
            x1="177.304" y1="72.868" x2="102.834" y2="200.873"></line>
        <line
            style="fill: rgb(216, 216, 216); stroke: rgb(0, 0, 0); transform-box: fill-box; transform-origin: 50% 50%;"
            x1="306.539" y1="67.643" x2="381.88" y2="198.31"></line>
        <line style="fill: rgb(216, 216, 216); stroke: rgb(0, 0, 0); transform-origin: 240.197px 312.289px;"
            x1="318.809" y1="311.496" x2="166.634" y2="311.493"></line>
        <ellipse style="stroke: rgb(0, 0, 0); fill: none; transform-box: fill-box; transform-origin: 50% 50%;"
            cx="243.634" cy="197.746" rx="11.507" ry="11.507"
            transform="matrix(1, 0.000045, -0.000045, 1, 0.008999, -3.011097)">
            <title>CenterPath</title>
        </ellipse>
    </g>
    <g transform="matrix(1, 0, 0, 1, 1.808673, -0.633036)" style="">
        <title>Arrows</title>

        <path
            d="M 317.21229597800004 138.27768100599997 L 314.197369709 123.54226193400007 L 304.2176935000001 134.79578899900002 L 314.197369709 123.54226193400007 "
            stroke="black" />
        <path d=" M 317.2123 138.27768 L 314.19737 123.54226 L 304.21769 134.79579 L 314.19737 123.54226 "
            stroke="black" />
        <path
            d="M 162.203128385 126.11028421099999 L 172.181838668 137.364070095 L 175.197730863 122.628392204 L 172.181838668 137.364070095 "
            stroke="black" />
        <path d=" M 162.20313 126.11028 L 172.18184 137.36407 L 175.19773 122.62839 L 172.18184 137.36407 "
            stroke="black" />
        <path
            d="M 144.015261521 158.21090104499999 L 134.872269185 170.153594552 L 149.91266658400002 170.302376727 L 134.872269185 170.153594552 "
            stroke="black" />
        <path d=" M 144.01526 158.2109 L 134.87227 170.15359 L 149.91267 170.30238 L 134.87227 170.15359 "
            stroke="black" />
        <path
            d="M 216.468994 302.243409578 L 221.225702789 287.97469742500004 L 206.95628352900002 292.730699107 L 221.225702789 287.97469742500004 "
            stroke="black" />
        <path d=" M 216.46899 302.24341 L 221.2257 287.9747 L 206.95628 292.7307 L 221.2257 287.9747 " stroke="black" />
        <path
            d="M 397.356006727 251.039993273 L 390.629993274 237.586999999 L 383.90300672700005 251.040006726 L 390.629993274 237.586999999 "
            stroke="black" />
        <path d=" M 397.35601 251.03999 L 390.62999 237.587 L 383.90301 251.04001 L 390.62999 237.587 "
            stroke="black" />
        <path
            d="M 258.014574149 293.39502027299994 L 272.283272849 298.15173578799994 L 267.52728462 283.88232325499996 L 272.283272849 298.15173578799994 "
            stroke="black" />
        <path d=" M 258.01457 293.39502 L 272.28327 298.15174 L 267.52728 283.88232 L 272.28327 298.15174 "
            stroke="black" />
        <path
            d="M 244.935004 204.57499800000002 L 240.48400399999997 206.79999800000002 L 244.935004 209.02599800000002 L 240.48400399999997 206.79999800000002 "
            stroke="black" />
        <path d=" M 244.935 204.575 L 240.484 206.8 L 244.935 209.026 L 240.484 206.8 " stroke="black" />
        <path
            d="M 232.576672561 192.678704421 L 233.134817775 187.733958025 L 228.84374794000001 190.254516232 L 233.134817775 187.733958025 "
            stroke="black" />
        <path d=" M 232.57667 192.6787 L 233.13482 187.73396 L 228.84375 190.25452 L 233.13482 187.73396 "
            stroke="black" />
        <path
            d="M 248.03158783600003 187.92093535499998 L 252.321816775 190.44203374999998 L 251.76450800600003 185.49674716599998 L 252.321816775 190.44203374999998 "
            stroke="black" />
        <path d=" M 248.03159 187.92094 L 252.32182 190.44203 L 251.76451 185.49675 L 252.32182 190.44203 "
            stroke="black" />
        <path
            d="M 346.813500071 162.39399564699997 L 331.940495361 164.63359260199996 L 342.65629437 175.188552015 L 331.940495361 164.63359260199996 "
            stroke="black" />
        <path d=" M 346.8135 162.394 L 331.9405 164.63359 L 342.65629 175.18855 L 331.9405 164.63359 " stroke="black" />
        <path
            d="M 85.266003273 232.96099972699997 L 91.99201672599999 246.413993001 L 98.719003273 232.960986274 L 91.99201672599999 246.413993001 "
            stroke="black" />
        <path d=" M 85.266 232.961 L 91.99202 246.41399 L 98.719 232.96099 L 91.99202 246.41399 " stroke="black" />
        <path
            d="M 207.703260902 34.15374809800002 L 199.41561312400003 46.70513897400003 L 214.42976090200003 45.80439587600003 L 199.41561312400003 46.70513897400003 "
            stroke="black" />
        <path d=" M 207.70326 34.15375 L 199.41561 46.70514 L 214.42976 45.8044 L 199.41561 46.70514 " stroke="black" />
        <path
            d="M 209.563015 318.893016 L 223.01601499999998 312.167016 L 209.563015 305.440016 L 223.01601499999998 312.167016 "
            stroke="black" />
        <path d=" M 209.56302 318.89302 L 223.01601 312.16702 L 209.56302 305.44002 L 223.01601 312.16702 "
            stroke="black" />
        <path
            d="M 151.280750098 101.244744098 L 150.379140974 116.25839187599999 L 162.931397876 107.971244098 L 150.379140974 116.25839187599999 "
            stroke="black" />
        <path d=" M 151.28075 101.24474 L 150.37914 116.25839 L 162.9314 107.97124 L 150.37914 116.25839 "
            stroke="black" />
        <path
            d="M 339.59375041 115.48418896800001 L 326.586106109 107.932806095 L 328.349638839 122.870195387 L 326.586106109 107.932806095 "
            stroke="black" />
        <path d=" M 339.59375 115.48419 L 326.58611 107.93281 L 328.34964 122.8702 L 326.58611 107.93281 "
            stroke="black" />
        <path
            d="M 291.551250175 43.85775182500002 L 276.53761585 42.956135975000024 L 284.824750175 55.50838615 L 276.53761585 42.956135975000024 "
            stroke="black" />
        <path d=" M 291.55125 43.85775 L 276.53762 42.95614 L 284.82475 55.50839 L 276.53762 42.95614 "
            stroke="black" />
        <path
            d="M 122.43874809799999 151.36074309800003 L 121.53713897399999 166.374390876 L 134.08939587599997 158.08724309800004 L 121.53713897399999 166.374390876 "
            stroke="black" />
        <path d=" M 122.43875 151.36074 L 121.53714 166.37439 L 134.0894 158.08724 L 121.53714 166.37439 "
            stroke="black" />
        <path
            d="M 368.64874241 165.28218296800003 L 355.641098109 157.73080009500003 L 357.40463083900005 172.668189387 L 355.641098109 157.73080009500003 "
            stroke="black" />
        <path d=" M 368.64874 165.28218 L 355.6411 157.7308 L 357.40463 172.66819 L 355.6411 157.7308 "
            stroke="black" />
        <path d="M 258.863987 318.866 L 272.316987 312.14 L 258.863987 305.413 L 272.316987 312.14 " stroke="black" />
        <path d=" M 258.86399 318.866 L 272.31699 312.14 L 258.86399 305.413 L 272.31699 312.14 " stroke="black" />
    </g>
    <g style="">
        <title>Steps</title>
        <rect x="169.275" y="64.11" width="16" height="16"
            style="stroke: rgb(0, 0, 0); fill: rgb(255, 255, 255); transform-box: fill-box; transform-origin: 50% 50%;"
            transform="matrix(-0.5, 0.866025, -0.866025, -0.5, 0.000046, -0.000095)"></rect>
        <rect x="235" y="24.955" width="16" height="16" style="stroke: rgb(0, 0, 0); fill: rgb(255, 255, 255);"></rect>
        <rect x="169.275" y="64.11" width="16" height="16"
            style="stroke: rgb(0, 0, 0); fill: rgb(255, 255, 255); transform-origin: 177.275px 72.11px;"
            transform="matrix(0.5, 0.866025, -0.866025, 0.5, 128.865972, -2.692219)"></rect>
        <rect x="169.275" y="64.11" width="16" height="16"
            style="stroke: rgb(0, 0, 0); fill: rgb(255, 255, 255); transform-origin: 177.275px 72.11px;"
            transform="matrix(-0.5, 0.866025, -0.866025, -0.5, -36.198502, 62.411182)"></rect>
        <rect x="169.275" y="64.11" width="16" height="16"
            style="stroke: rgb(0, 0, 0); fill: rgb(255, 255, 255); transform-origin: 177.275px 72.11px;"
            transform="matrix(-0.5, 0.866025, -0.866025, -0.5, -71.651085, 124.4832)"></rect>
        <rect x="169.275" y="64.11" width="16" height="16"
            style="stroke: rgb(0, 0, 0); fill: rgb(255, 255, 255); transform-origin: 177.275px 72.11px;"
            transform="matrix(-0.707107, 0.707107, -0.707107, -0.707107, -61.196034, 216.904667)"></rect>
        <rect x="169.275" y="64.11" width="16" height="16"
            style="stroke: rgb(0, 0, 0); fill: rgb(255, 255, 255); transform-origin: 177.275px 72.11px;"
            transform="matrix(-0.707107, 0.707107, -0.707107, -0.707107, 190.140148, 218.159229)"></rect>
        <rect x="169.275" y="64.11" width="16" height="16"
            style="stroke: rgb(0, 0, 0); fill: rgb(255, 255, 255); transform-origin: 177.275px 72.11px;"
            transform="matrix(0.5, 0.866025, -0.866025, 0.5, 201.849645, 123.646708)"></rect>
        <rect x="169.275" y="64.11" width="16" height="16"
            style="stroke: rgb(0, 0, 0); fill: rgb(255, 255, 255); transform-origin: 177.275px 72.11px;"
            transform="matrix(0.5, 0.866025, -0.866025, 0.5, 170.484868, 68.398327)"></rect>
        <rect x="234.967" y="303.501" width="16" height="16"
            style="stroke: rgb(0, 0, 0); fill: rgb(255, 255, 255); transform-origin: 242.967px 311.501px;"></rect>
        <rect x="169.275" y="64.11" width="16" height="16"
            style="stroke: rgb(0, 0, 0); fill: rgb(255, 255, 255); transform-origin: 177.275px 72.11px;"
            transform="matrix(-0.5, 0.866025, -0.866025, -0.5, 28.396003, 100.656204)"></rect>
        <rect x="169.275" y="64.11" width="16" height="16"
            style="stroke: rgb(0, 0, 0); fill: rgb(255, 255, 255); transform-origin: 177.275px 72.11px;"
            transform="matrix(0.5, 0.866025, -0.866025, 0.5, 103.021252, 100.284406)"></rect>
        <rect x="234.992" y="228.063" width="16" height="16"
            style="stroke: rgb(0, 0, 0); fill: rgb(255, 255, 255); transform-origin: 242.992px 236.063px;"></rect>
    </g>
</svg>