<svg viewBox="0 0 600 400">
    <rect x="0" y="0" width="600" height="400" fill="white" />

    <!-- <ellipse id="track" cx="300" cy="200" rx="270" ry="175" fill="none" stroke="grey" stroke-dasharray="7.06858" stroke-dashoffset="7.06858" stroke-width="1" /> -->

    <path stroke="grey" fill="none" stroke-dasharray="7.06858" stroke-dashoffset="7.06858" stroke-width="1" d="M 514.1721 173.3059 
l -150.1541 -125.1279 
a 100 100 90 0 0 -128.036 0 
l -150 125 
a 100 100 90 0 0 64.018 176.822 
h 300 
a 100 100 90 0 0 64.1721 -176.6941" />


    <circle id="center" cx="300" cy="125" r="75" stroke="black" fill="none" />
    <circle id="center" cx="150" cy="250" r="75" stroke="black" fill="none" />
    <circle id="center" cx="450" cy="250" r="75" stroke="black" fill="none" />
    <!--     
    <g id="squares" stroke="grey" fill="white">
        <rect x="285" y="285" width="30" height="30" transform="rotate(0, 300, 300) translate(0, -270) " />
        <rect x="285" y="285" width="30" height="30" transform="rotate(24, 300, 300) translate(0, -270) " />
        <rect x="285" y="285" width="30" height="30" transform="rotate(48, 300, 300) translate(0, -270) " />
        <rect x="285" y="285" width="30" height="30" transform="rotate(72, 300, 300) translate(0, -270) " />
        <rect x="285" y="285" width="30" height="30" transform="rotate(96, 300, 300) translate(0, -270) " />
        <rect x="285" y="285" width="30" height="30" transform="rotate(120, 300, 300) translate(0, -270) " />
        <rect x="285" y="285" width="30" height="30" transform="rotate(144, 300, 300) translate(0, -270) " />
        <rect x="285" y="285" width="30" height="30" transform="rotate(168, 300, 300) translate(0, -270) " />
        <rect x="285" y="285" width="30" height="30" transform="rotate(192, 300, 300) translate(0, -270) " />
        <rect x="285" y="285" width="30" height="30" transform="rotate(216, 300, 300) translate(0, -270) " />
        <rect x="285" y="285" width="30" height="30" transform="rotate(240, 300, 300) translate(0, -270) " />
        <rect x="285" y="285" width="30" height="30" transform="rotate(264, 300, 300) translate(0, -270) " />
        <rect x="285" y="285" width="30" height="30" transform="rotate(288, 300, 300) translate(0, -270) " />
        <rect x="285" y="285" width="30" height="30" transform="rotate(312, 300, 300) translate(0, -270) " />
        <rect x="285" y="285" width="30" height="30" transform="rotate(336, 300, 300) translate(0, -270) " />
    </g> -->

    <!-- <g id="arrows" stroke="grey" fill="none">
        <path d="M 293 307 l 7 -7 l -7 -7 " transform="rotate(13, 300, 300) translate(0, -270)" />
        <path d="M 293 307 l 7 -7 l -7 -7 " transform="rotate(37, 300, 300) translate(0, -270)" />
        <path d="M 293 307 l 7 -7 l -7 -7 " transform="rotate(61, 300, 300) translate(0, -270)" />
        <path d="M 293 307 l 7 -7 l -7 -7 " transform="rotate(85, 300, 300) translate(0, -270)" />
        <path d="M 293 307 l 7 -7 l -7 -7 " transform="rotate(109, 300, 300) translate(0, -270)" />
        <path d="M 293 307 l 7 -7 l -7 -7 " transform="rotate(133, 300, 300) translate(0, -270)" />
        <path d="M 293 307 l 7 -7 l -7 -7 " transform="rotate(157, 300, 300) translate(0, -270)" />
        <path d="M 293 307 l 7 -7 l -7 -7 " transform="rotate(181, 300, 300) translate(0, -270)" />
        <path d="M 293 307 l 7 -7 l -7 -7 " transform="rotate(205, 300, 300) translate(0, -270)" />
        <path d="M 293 307 l 7 -7 l -7 -7 " transform="rotate(229, 300, 300) translate(0, -270)" />
        <path d="M 293 307 l 7 -7 l -7 -7 " transform="rotate(253, 300, 300) translate(0, -270)" />
        <path d="M 293 307 l 7 -7 l -7 -7 " transform="rotate(277, 300, 300) translate(0, -270)" />
        <path d="M 293 307 l 7 -7 l -7 -7 " transform="rotate(301, 300, 300) translate(0, -270)" />
        <path d="M 293 307 l 7 -7 l -7 -7 " transform="rotate(325, 300, 300) translate(0, -270)" />
        <path d="M 293 307 l 7 -7 l -7 -7 " transform="rotate(349, 300, 300) translate(0, -270)" />
    </g> -->

</svg>