<svg width="210" height="210" xmlns="http://www.w3.org/2000/svg">
    <circle r="100" cx="105" cy="105" fill="white" stroke="black" />
    <g transform="translate(105, 105)">
        <g transform="rotate(0) translate(0, -80)">
            <path
                d="M 12.0226 -1.6782 C 12.1616 -4.9866 4.2421 -6.5972 3.899 -6.9744 C 3.728 -7.1619 4.2958 -12.027 0.0006 -12.0235 C -4.2946 -12.0271 -3.727 -7.162 -3.898 -6.9744 C -4.2412 -6.5973 -12.1603 -4.9866 -12.0214 -1.6782 C -11.8829 1.6304 -7.6805 -0.0689 -6.7841 0.9048 C -6.0001 1.757 -10.4584 7.2125 -10.957 10.6765 C -11.1196 11.8056 -10.8022 12.0246 -9.7049 12.0246 C -7.7147 12.0246 -5.8147 12.0234 -4.0648 12.0234 C -3.2743 12.0234 -2.9932 11.5691 -2.5854 10.9432 C -1.6827 9.5575 -0.5924 7.3302 0.001 7.3304 C 0.5941 7.3302 1.6846 9.5574 2.5874 10.943 C 2.9953 11.5692 3.2761 12.0232 4.0666 12.0232 C 5.8161 12.0232 7.7163 12.0244 9.7067 12.0244 C 10.8041 12.0244 11.1217 11.8053 10.9589 10.6762 C 10.4604 7.2122 6.0024 1.7569 6.786 0.9046 C 7.6822 -0.0688 11.8852 1.6303 12.0233 -1.6783 Z"
                fill-rule="evenodd" />
            <text text-anchor="middle" transform="translate(0, 5)" fill="white">0</text>
        </g>

        <g transform="rotate(72) translate(0, -80)">
            <path transform="rotate(-72)"
                d="M -4.0881 -13.1997 C -4.2957 -13.1793 -4.4886 -13.0467 -4.5822 -12.8601 L -5.1924 -11.6469 L -8.6799 -11.6469 C -8.6994 -11.6478 -8.7186 -11.6478 -8.7381 -11.6469 C -9.0429 -11.6181 -9.3012 -11.3325 -9.3 -11.0256 L -9.3 12.5784 C -9.3 12.9036 -9.0045 13.1997 -8.6799 13.1997 L 8.6802 13.1997 C 9.0048 13.1997 9.3003 12.9036 9.3003 12.5784 L 9.3003 -11.0256 C 9.3003 -11.3508 9.0048 -11.6466 8.6802 -11.6469 L 5.1927 -11.6469 L 4.5825 -12.8601 C 4.4796 -13.0632 4.2576 -13.1997 4.0302 -13.1997 L -4.0299 -13.1997 C -4.0494 -13.2006 -4.0686 -13.2006 -4.0881 -13.1997 Z M -3.6522 -11.9574 L 3.6522 -11.9574 L 3.8073 -11.9574 L -3.807 -11.9574 Z M -8.0601 -10.4046 L -5.8125 -10.4046 L -6.1323 -9.7542 C -6.3234 -9.3777 -6.0018 -8.8521 -5.58 -8.8515 L -4.0299 -8.8515 L -2.4798 -8.8515 L 2.4801 -8.8515 L 4.0302 -8.8515 L 5.5803 -8.8515 C 6.0018 -8.8518 6.3234 -9.3774 6.1326 -9.7542 L 5.8128 -10.4046 L 8.0604 -10.4046 L 8.0604 11.9571 L -8.0595 11.9571 Z M -4.4274 -9.7833 L 4.4271 -9.7833 L 4.5822 -10.0938 L 4.0299 -10.0938 L 2.4798 -10.0938 L -2.4801 -10.0938 L -4.0302 -10.0938 L -4.5825 -10.0938 Z"
                fill-rule="evenodd" />
            <text text-anchor="middle" transform="rotate(-72) translate(0, 5)" fill="black">1</text>
        </g>

        <g transform="rotate(144) translate(0, -80)">
            <path transform="rotate(-144)"
                d="M 22.56 -3.5 H 5.4 V -5.3638 C 5.4 -5.8057 5.0517 -6.2 4.61 -6.2 H -24.5164 C -24.9583 -6.2 -25.3 -5.8057 -25.3 -5.3638 V -1.785 A 1.7749 1.7749 90 0 0 -23.6921 -0.0131 L -23.3821 3.04 C -23.3815 3.0467 -23.3827 3.0526 -23.3821 3.0593 A 3.6058 3.6058 90 0 0 -19.8123 6.2 H -0.0943 A 3.6079 3.6079 90 0 0 3.4769 3.0593 C 3.4777 3.0526 3.4785 3.0639 3.4792 3.0572 L 3.59 2 H 22.56 A 2.75 2.75 90 1 0 22.56 -3.5 Z M -23.7 -4.6 H 3.8 V -1.785 A 0.1764 0.1764 90 0 1 3.63 -1.6 H -23.5362 A 0.1713 0.1713 90 0 1 -23.7 -1.785 Z M -0.0943 4.6 H -19.8123 A 2.0025 2.0025 90 0 1 -21.7954 2.8667 L -22.0909 0 H 2.1843 L 1.8887 2.8668 A 2.0022 2.0022 90 0 1 -0.0943 4.6 Z M 3.7887 0.0045 A 1.7948 1.7948 90 0 0 5.4 -1.785 V -1.9 H 13.8 V 0.4 H 3.7547 Z M 22.56 0.4 H 15.4 V -1.9 H 22.56 A 1.15 1.15 90 1 1 22.56 0.4 Z"
                fill-rule="evenodd" />
            <g transform="rotate(-144) ">
                <path transform="scale(.5) translate(-45, -30) rotate(-15)" fill="#c0c0c0"
                    d="M 0 15 L 1.414 16.414 L 4.747 13.081 A 3.359 3.359 0 0 0 4.747 8.333 L 3.081 6.667 A 1.36 1.36 0 0 1 3.081 4.747 L 6.414 1.414 L 5 0 L 1.667 3.333 A 3.359 3.359 0 0 0 1.667 8.081 L 3.333 9.747 A 1.36 1.36 0 0 1 3.333 11.667 Z" />
                <path transform="scale(.5) translate(-8, -30) rotate(-15)" fill="#c0c0c0"
                    d="M 0 15 L 1.414 16.414 L 4.747 13.081 A 3.359 3.359 0 0 0 4.747 8.333 L 3.081 6.667 A 1.36 1.36 0 0 1 3.081 4.747 L 6.414 1.414 L 5 0 L 1.667 3.333 A 3.359 3.359 0 0 0 1.667 8.081 L 3.333 9.747 A 1.36 1.36 0 0 1 3.333 11.667 Z" />
            </g>
            <text text-anchor="middle" transform="rotate(-144) translate(-11, -7)" fill="black">2</text>
        </g>

        <g transform="rotate(216) translate(0, -80)">
            <path transform="rotate(-216)"
                d="M 4.6543 9.459 C 5.2479 9.459 5.8279 9.2183 6.2469 8.7988 L 10.1561 4.8825 C 10.4904 4.5477 10.6628 4.0846 10.6294 3.6126 C 10.5957 3.1401 10.3586 2.7067 9.9805 2.4228 C 9.4032 1.9899 8.5977 1.9899 8.0213 2.4228 L 5.2502 4.5 H 5.242 C 4.9882 3.9699 4.4509 3.6 3.825 3.6 H 1.0363 L 0.027 2.9268 C -0.1958 2.7783 -0.4545 2.7 -0.7222 2.7 H -3.717 C -4.0392 2.7 -4.351 2.8152 -4.5954 3.0249 L -7.1766 5.2371 L -7.7819 4.6319 C -7.9578 4.4559 -8.2422 4.4559 -8.4182 4.6319 L -11.1181 7.3319 C -11.2941 7.5078 -11.2941 7.7922 -11.1181 7.9681 L -5.2682 13.8181 C -5.1804 13.9059 -5.0652 13.95 -4.95 13.95 S -4.7196 13.9059 -4.6319 13.8181 L -1.9319 11.1181 C -1.7559 10.9422 -1.7559 10.6578 -1.9319 10.4818 L -2.5137 9.9 L -2.196 9.5823 C -2.1109 9.4973 -1.998 9.4505 -1.8774 9.4505 C -1.8774 9.4505 -1.8774 9.4505 -1.877 9.4505 L 4.6517 9.459 C 4.6525 9.459 4.6535 9.459 4.6543 9.459 Z M -4.95 12.8637 L -10.1637 7.65 L -8.1 5.5863 L -2.8863 10.8 L -4.95 12.8637 Z M -1.8774 8.5505 C -2.2383 8.5505 -2.5776 8.6908 -2.8323 8.946 L -3.15 9.2637 L -6.5385 5.8752 L -4.0104 3.708 C -3.928 3.6383 -3.8241 3.6 -3.717 3.6 H -0.7227 C -0.6336 3.6 -0.5472 3.6261 -0.473 3.6756 L 0.6502 4.4244 C 0.7241 4.4734 0.8114 4.5 0.9 4.5 H 3.825 C 4.1971 4.5 4.4995 4.8024 4.5 5.1741 C 4.5 5.1836 4.4977 5.1925 4.4973 5.202 C 4.496 5.2385 4.4937 5.2744 4.4865 5.3095 C 4.4253 5.6178 4.1166 5.85 3.7669 5.85 H -0.45 V 6.75 H 3.7669 H 3.825 C 4.2971 6.75 4.716 6.5372 5.0049 6.2073 C 5.0076 6.2042 5.0103 6.2005 5.013 6.1974 C 5.0656 6.1362 5.1151 6.0727 5.1583 6.0039 C 5.1786 5.9724 5.1944 5.9377 5.2123 5.9045 C 5.2371 5.8576 5.2637 5.8127 5.2835 5.7631 C 5.3109 5.6961 5.3307 5.625 5.3487 5.5534 C 5.3545 5.5305 5.364 5.5089 5.3685 5.4855 C 5.3689 5.4832 5.3698 5.481 5.3703 5.4787 C 5.3757 5.4522 5.3797 5.4261 5.3838 5.3995 H 5.4 C 5.4977 5.3995 5.5922 5.3681 5.67 5.3095 L 8.5608 3.1419 C 8.8191 2.9475 9.1809 2.9475 9.4401 3.1419 C 9.6102 3.2692 9.7159 3.4636 9.7312 3.6761 C 9.7461 3.888 9.6687 4.0959 9.5184 4.2462 L 5.6093 8.1625 C 5.3582 8.4141 5.0103 8.5586 4.6539 8.5586 C 4.6535 8.5586 4.653 8.5586 4.6521 8.5586 L -1.8765 8.55 C -1.8765 8.5505 -1.877 8.5505 -1.8774 8.5505 Z" />
            <path transform=" rotate(-216)"
                d="M 13.3141 -1.7046 C 12.3961 -14.0114 7.9853 -17.5867 1.8 -18.1654 V -19.6 C 1.8 -20.3443 1.1943 -20.95 0.45 -20.95 S -0.15 -20.95 -0.45 -20.95 C -1.1943 -20.95 -1.8 -20.3443 -1.8 -19.6 V -18.1654 C -7.9853 -17.5867 -12.3961 -14.0114 -13.3141 -1.7046 C -13.4239 -1.6227 -13.5 -1.4976 -13.5 -1.35 V 0.45 C -13.5 0.6984 -13.2989 0.9 -13.05 0.9 H 13.05 C 13.2988 0.9 13.5 0.6984 13.5 0.45 V -1.35 C 13.5 -1.4976 13.4239 -1.6227 13.3141 -1.7046 Z M -0.9 -18.2288 V -19.6 C -0.9 -19.848 -0.6984 -20.05 -0.45 -20.05 H 0.45 C 0.6984 -20.05 0.9 -19.848 0.9 -19.6 V -18.2288 C 0.8793 -18.2297 0.8582 -18.2292 0.8375 -18.2302 C 0.5612 -18.2419 0.2826 -18.25 0 -18.25 S -0.5612 -18.2419 -0.8375 -18.2302 C -0.8582 -18.2293 -0.8793 -18.2298 -0.9 -18.2288 Z M -1.2834 -17.3037 C 0 -17.3636 0.4356 -17.3636 1.2839 -17.3037 C 7.1739 -16.8951 11.4205 -13.6654 12.3844 -1.8 H -12.3844 C -11.4205 -13.6654 -7.1739 -16.8951 -1.2834 -17.3037 Z M 12.6 0 H -12.6 V -0.9 H 12.6 V 0 Z" />

            <text text-anchor="middle" transform="rotate(-216) translate(0, -5)" fill="black">3</text>
        </g>

        <g transform="rotate(-72) translate(0, -80)">
            <path transform="rotate(72)"
                d="M 9.0413 -15.4056 A 0.7002 0.6998 0 0 0 8.7241 -15.2962 L 2.4788 -11.4353 A 0.7002 0.6998 0 0 0 2.1726 -11.0416 L 1.7569 -9.5759 L -9.104 -9.5759 A 0.7002 0.6998 0 0 0 -9.804 -8.7993 L -7.2774 14.7819 A 0.7002 0.6998 0 0 0 -6.5774 15.4053 L 5.8257 15.4053 A 0.7002 0.6998 0 0 0 6.5257 14.7819 L 9.0522 -8.7993 A 0.7002 0.6998 0 0 0 8.3522 -9.5759 L 3.2116 -9.5759 L 3.4413 -10.3962 L 9.4569 -14.1041 A 0.7002 0.6998 0 0 0 9.1069 -15.4056 A 0.7002 0.6998 0 0 0 9.0413 -15.4056 Z M -8.3274 -8.1759 L 1.3522 -8.1759 L -0.2993 -2.3681 C -1.3311 -2.6701 -2.4866 -2.9378 -3.9415 -2.9478 C -5.0187 -2.9551 -6.2587 -2.8184 -7.7149 -2.4446 L -8.3274 -8.1759 Z M 2.8069 -8.1759 L 7.5757 -8.1759 L 6.9304 -2.1931 C 4.193 -1.1746 2.6914 -1.4535 1.0351 -1.9525 L 2.8069 -8.1759 Z" />
            <text text-anchor="middle" transform="rotate(72) translate(0, 10)" fill="white">4</text>
        </g>
    </g>
</svg>