<svg viewBox="0 0 35.1 22" x="0px" y="0px" height="40px" width="40px">
    <path fill="white"
        d="M 13.2063 16.2611 L 12.3168 16.2611 C 12.043 16.2611 11.8167 16.4878 11.8167 16.7591 L 11.8167 21.0615 C 11.8167 22.0583 10.9601 22.41 10.2569 21.7068 L 0.295 11.745 C -0.0964 11.3535 -0.0981 10.7225 0.295 10.3294 L 10.2569 0.3675 C 10.9614 -0.3369 11.8167 0.0215 11.8167 1.0128 L 11.8167 5.3153 C 11.8167 5.5872 12.0459 5.8133 12.325 5.8133 L 13.201 5.8133 C 23.6719 5.8133 29.8604 9.7116 34.4876 18.7325 C 34.624 18.9985 34.744 19.24 34.8465 19.4527 C 34.9085 19.5813 34.9512 19.6723 34.9704 19.7145 C 35.4169 20.653 34.7279 21.2737 33.8116 20.7801 C 33.7384 20.7385 33.5382 20.631 33.1652 20.4382 C 26.7705 17.1308 22.3467 16.2611 13.2063 16.2611 Z" />
</svg>