<svg x="0px" y="0px" viewBox="0 0 100 125">
    <path
        d="M44.479,6.962c-0.127-1.238-0.77-1.961-1.96-1.961c-1.194,0-1.964,0.769-1.964,1.961l0.001,18.128  c0,1.258-0.812,2.07-2.071,2.07H38.39c-1.258,0-2.07-0.812-2.07-2.07V6.963c0-1.191-0.77-1.961-1.963-1.961  s-1.963,0.769-1.962,1.961L32.394,25.09c0,1.258-0.811,2.07-2.07,2.07H30.23c-1.258,0-2.07-0.812-2.07-2.07V6.962  c0-1.191-0.77-1.961-1.963-1.962c-1.191,0-1.833,0.724-1.961,1.962l-1.88,21.651c-0.511,5.888,1.872,10.673,7.421,11.988  c0.648,0.154,1.166,0.562,1.115,1.427l-2.766,46.841C27.889,92.861,30.223,95,34.358,95c4.135,0,6.466-2.137,6.232-6.13  l-2.763-46.844c-0.051-0.865,0.467-1.273,1.115-1.426c5.547-1.316,7.93-6.1,7.419-11.987L44.479,6.962z" />
</svg>