<svg viewBox="0 0 24 30" x="0px" y="0px">
    <path fill="white"
        d="m21.199,6.017l-1.999-2.667c-.517-.689-1.339-1.1-2.2-1.1H5c-1.517,0-2.75,1.233-2.75,2.75v14c0,1.517,1.233,2.75,2.75,2.75h14c1.517,0,2.75-1.233,2.75-2.75V7.667c0-.591-.195-1.177-.551-1.65Zm-12.449-2.267h6.5v3.25c0,.138-.112.25-.25.25h-6c-.138,0-.25-.112-.25-.25v-3.25Zm-2,16.5v-6.25c0-.689.561-1.25,1.25-1.25h8c.689,0,1.25.561,1.25,1.25v6.25H6.75Zm13.5-1.25c0,.689-.561,1.25-1.25,1.25h-.25v-6.25c0-1.517-1.233-2.75-2.75-2.75h-8c-1.517,0-2.75,1.233-2.75,2.75v6.25h-.25c-.689,0-1.25-.561-1.25-1.25V5c0-.689.561-1.25,1.25-1.25h2.25v3.25c0,.965.785,1.75,1.75,1.75h6c.965,0,1.75-.785,1.75-1.75v-3.25h.25c.392,0,.766.187,1,.5l2,2.667c.161.215.25.481.25.75v11.333Z" />
</svg>