<svg width="210px" height="210px" viewBox="0 0 100 100" version="1.1" xmlns="http://www.w3.org/2000/svg">
    <!-- <path transform="rotate(0, 50, 50)" d="M50 50 L50 0 A50 50 0 0 1 97.55 34.55 z" fill="red" />
    <path transform="rotate(72, 50, 50)" d="M50 50 L50 0 A50 50 0 0 1 97.55 34.55 z" fill="green" />
    <path transform="rotate(144, 50, 50)" d="M50 50 L50 0 A50 50 0 0 1 97.55 34.55 z" fill="blue" />
    <path transform="rotate(-144, 50, 50)" d="M50 50 L50 0 A50 50 0 0 1 97.55 34.55 z" fill="purple" />
    <path transform="rotate(-72, 50, 50)" d="M50 50 L50 0 A50 50 0 0 1 97.55 34.55 z" fill="yellow" /> -->

</svg>