<svg x="0px" y="0px" viewBox="0 0 100 125">
    <g transform="translate(0,-952.36218)">
        <path
            d="m 75.8444 958.3477 a 2.0006 1.9994 0 0 0 -0.9063 0.3125 l -17.8438 11.0313 a 2.0006 1.9994 0 0 0 -0.875 1.125 l -1.1875 4.1875 l -31.0313 0 a 2.0006 1.9994 0 0 0 -2 2.2188 l 7.2188 67.375 a 2.0006 1.9994 0 0 0 2 1.7812 l 35.4375 0 a 2.0006 1.9994 0 0 0 2 -1.7812 l 7.2188 -67.375 a 2.0006 1.9994 0 0 0 -2 -2.2188 l -14.6875 0 l 0.6563 -2.3438 l 17.1875 -10.5938 a 2.0006 1.9994 0 0 0 -1 -3.7188 a 2.0006 1.9994 0 0 0 -0.1875 0 z m -49.625 20.6563 l 27.6563 0 l -16.7457 63.521 l -4.777 0 z m 31.8125 0 l 13.625 0 l -7.9679 63.521 l -22.042 0.03 z"
            fill="#000000" fill-opacity="1" fill-rule="evenodd" stroke="none" marker="none" visibility="visible"
            display="inline" overflow="visible" />
    </g>
</svg>